<svg id="Layer_1" data-name="Layer 1" xmlns="http://www.w3.org/2000/svg" xmlns:xlink="http://www.w3.org/1999/xlink" viewBox="0 0 147 197"><defs><style>.cls-1{fill:#fff;}.cls-2{fill:url(#linear-gradient);}.cls-3{mask:url(#mask);}.cls-4{fill:url(#linear-gradient-2);}.cls-5{fill:url(#linear-gradient-3);}.cls-6{fill:url(#linear-gradient-4);}.cls-7{fill:url(#linear-gradient-5);}.cls-8{fill:#ffb885;stroke:#b8dce2;stroke-width:10px;}.cls-9{fill:#ffe9d9;}</style><linearGradient id="linear-gradient" x1="66" y1="212.39" x2="66" y2="73.39" gradientTransform="matrix(1, 0, 0, -1, 8, 163.89)" gradientUnits="userSpaceOnUse"><stop offset="0" stop-color="#fff7d9"/><stop offset="1" stop-color="#717879"/></linearGradient><mask id="mask" x="0" y="0" width="147" height="197" maskUnits="userSpaceOnUse"><g transform="translate(8 -2)"><g id="mask0"><rect class="cls-1" x="8" y="2" width="116" height="147" rx="15"/></g></g></mask><linearGradient id="linear-gradient-2" x1="56.06" y1="132.18" x2="56.06" y2="62.91" gradientTransform="matrix(1, 0, 0, -1, 0, 165.89)" gradientUnits="userSpaceOnUse"><stop offset="0" stop-color="#e76969"/><stop offset="1" stop-color="#ffb885"/></linearGradient><linearGradient id="linear-gradient-3" x1="56.04" y1="139.27" x2="54.6" y2="129.09" gradientTransform="matrix(1, 0, 0, -1, 0, 165.89)" gradientUnits="userSpaceOnUse"><stop offset="0.58" stop-color="#ffdb5a"/><stop offset="1" stop-color="#a1ecfd"/></linearGradient><linearGradient id="linear-gradient-4" x1="73.49" y1="132.22" x2="73.49" y2="62.95" xlink:href="#linear-gradient-2"/><linearGradient id="linear-gradient-5" x1="74.45" y1="139.73" x2="73.01" y2="129.55" xlink:href="#linear-gradient-3"/></defs><rect class="cls-2" x="16" width="116" height="147" rx="15"/><g class="cls-3"><path class="cls-4" d="M51.57,40.46h9V103h-9Z" transform="translate(8 -2)"/><path class="cls-5" d="M51.65,33.4c3.07,0,3.54,5.61,3.85,5.58s3.64-4.24,2.9-4.56S54,30,58.11,26.74C51.34,27.7,51.42,33.4,51.65,33.4Z" transform="translate(8 -2)"/><path class="cls-6" d="M69,40.42h9v62.52H69Z" transform="translate(8 -2)"/><path class="cls-7" d="M71.13,35.41c2.92.75,1.49,3,1.8,3s2-4.76,2.69-4.47,2.92-5.75-3.14-7.75C74.5,29.91,68.28,34.68,71.13,35.41Z" transform="translate(8 -2)"/><path class="cls-8" d="M134,133.5c0,32.89-30.11,60.5-68.5,60.5S-3,166.39-3,133.5,27.11,73,65.5,73,134,100.61,134,133.5Z" transform="translate(8 -2)"/><path class="cls-9" d="M30.1,94.76l5.66-3a3.09,3.09,0,0,1,4.41,1.62h0a4,4,0,0,1-1.81,4.9l-5.66,3a3.08,3.08,0,0,1-4.4-1.63h0A4,4,0,0,1,30.1,94.76Z" transform="translate(8 -2)"/><path class="cls-9" d="M42.44,100l5.66-3a3.09,3.09,0,0,1,4.41,1.62h0a4,4,0,0,1-1.81,4.9l-5.66,3a3.09,3.09,0,0,1-4.4-1.62h0A4,4,0,0,1,42.44,100Z" transform="translate(8 -2)"/><path class="cls-9" d="M46.5,86.63l5.66-3a3.08,3.08,0,0,1,4.4,1.62h0a4,4,0,0,1-1.8,4.9l-5.66,3a3.08,3.08,0,0,1-4.4-1.62h0A4,4,0,0,1,46.5,86.63Z" transform="translate(8 -2)"/></g></svg>