<svg xmlns="http://www.w3.org/2000/svg" xmlns:xlink="http://www.w3.org/1999/xlink" viewBox="0 0 147 197"><defs><style>.cls-1{fill:#fff;}.cls-2{fill:none;}.cls-3{clip-path:url(#clip-path);}.cls-4{fill:url(#linear-gradient);}.cls-5{mask:url(#mask);}.cls-6{fill:url(#linear-gradient-2);}.cls-7{fill:url(#linear-gradient-3);}.cls-8{fill:url(#linear-gradient-4);}.cls-9{fill:url(#linear-gradient-5);}.cls-10{fill:#ffb885;stroke:#b8dce2;stroke-width:10px;}.cls-11{fill:#ffe9d9;}</style><clipPath id="clip-path" transform="translate(16)"><rect class="cls-2" width="116" height="147"/></clipPath><linearGradient id="linear-gradient" x1="58" y1="210.39" x2="58" y2="71.39" gradientTransform="matrix(1, 0, 0, -1, 16, 161.89)" gradientUnits="userSpaceOnUse"><stop offset="0" stop-color="#fff7d9"/><stop offset="1" stop-color="#717879"/></linearGradient><mask id="mask" x="0" y="0" width="147" height="197" maskUnits="userSpaceOnUse"><g transform="translate(16)"><g id="mask0"><rect class="cls-1" width="116" height="147" rx="15"/></g></g></mask><linearGradient id="linear-gradient-2" x1="48.06" y1="130.18" x2="48.06" y2="60.91" gradientTransform="matrix(1, 0, 0, -1, 0, 161.89)" gradientUnits="userSpaceOnUse"><stop offset="0" stop-color="#e76969"/><stop offset="1" stop-color="#ffb885"/></linearGradient><linearGradient id="linear-gradient-3" x1="48.04" y1="137.27" x2="46.6" y2="127.09" gradientTransform="matrix(1, 0, 0, -1, 0, 161.89)" gradientUnits="userSpaceOnUse"><stop offset="0.58" stop-color="#ffdb5a"/><stop offset="1" stop-color="#a1ecfd"/></linearGradient><linearGradient id="linear-gradient-4" x1="65.49" y1="130.22" x2="65.49" y2="60.95" xlink:href="#linear-gradient-2"/><linearGradient id="linear-gradient-5" x1="66.45" y1="137.73" x2="65.01" y2="127.55" xlink:href="#linear-gradient-3"/></defs><g id="Layer_2" data-name="Layer 2"><g id="Layer_1-2" data-name="Layer 1"><g class="cls-3"><rect class="cls-4" x="16" width="116" height="147" rx="15"/><g class="cls-5"><path class="cls-6" d="M43.57,38.46h9V101h-9Z" transform="translate(16)"/><path class="cls-7" d="M43.65,31.4c3.07,0,3.54,5.61,3.85,5.58s3.64-4.24,2.9-4.56S46,28,50.11,24.74C43.34,25.7,43.42,31.4,43.65,31.4Z" transform="translate(16)"/><path class="cls-8" d="M61,38.42h9v62.52H61Z" transform="translate(16)"/><path class="cls-9" d="M63.13,33.41c2.92.75,1.49,3,1.8,3s2-4.76,2.69-4.47,2.92-5.75-3.14-7.75C66.5,27.91,60.28,32.68,63.13,33.41Z" transform="translate(16)"/><path class="cls-10" d="M126,131.5c0,32.89-30.11,60.5-68.5,60.5S-11,164.39-11,131.5,19.11,71,57.5,71,126,98.61,126,131.5Z" transform="translate(16)"/><path class="cls-11" d="M22.1,92.76l5.66-3a3.09,3.09,0,0,1,4.41,1.62h0a4,4,0,0,1-1.81,4.9l-5.66,3a3.08,3.08,0,0,1-4.4-1.63h0A4,4,0,0,1,22.1,92.76Z" transform="translate(16)"/><path class="cls-11" d="M34.44,98l5.66-3a3.09,3.09,0,0,1,4.41,1.62h0a4,4,0,0,1-1.81,4.9l-5.66,3a3.09,3.09,0,0,1-4.4-1.62h0A4,4,0,0,1,34.44,98Z" transform="translate(16)"/><path class="cls-11" d="M38.5,84.63l5.66-3a3.08,3.08,0,0,1,4.4,1.62h0a4,4,0,0,1-1.8,4.9l-5.66,3a3.08,3.08,0,0,1-4.4-1.62h0A4,4,0,0,1,38.5,84.63Z" transform="translate(16)"/></g></g></g></g></svg>