<svg width="75" height="75" viewBox="0 0 75 75" fill="none" xmlns="http://www.w3.org/2000/svg">
<g filter="url(#filter0_i)">
<mask id="mask0" mask-type="alpha" maskUnits="userSpaceOnUse" x="0" y="0" width="75" height="75">
<circle cx="37.5" cy="37.5" r="37.5" fill="#3B5558"/>
</mask>
<g mask="url(#mask0)">
<circle cx="37.5" cy="37.5" r="37.5" fill="#717879"/>
<path d="M24.5668 23.4835H33.5488V79.6212H24.5668V23.4835Z" fill="url(#paint0_linear)"/>
<g style="mix-blend-mode:color-dodge">
<path d="M24.6406 17.1404C27.7105 17.1404 28.1858 22.1748 28.496 22.1525C28.8063 22.1302 32.1403 18.3415 31.3999 18.0584C30.6596 17.7752 26.9734 14.0492 31.1132 11.1626C24.3423 12.0314 24.4113 17.1404 24.6406 17.1404Z" fill="url(#paint1_linear)"/>
</g>
<path d="M42 35.4518H50.982V91.5895H42V35.4518Z" fill="url(#paint2_linear)"/>
<g style="mix-blend-mode:color-dodge">
<path d="M44.1279 30.9493C47.047 31.6229 45.619 33.6421 45.9292 33.6198C46.2394 33.5974 47.9452 29.3444 48.6189 29.602C49.2926 29.8596 51.5381 24.4373 45.4752 22.6409C47.4961 26.0091 41.2751 30.2909 44.1279 30.9493Z" fill="url(#paint3_linear)"/>
</g>
</g>
</g>
<defs>
<filter id="filter0_i" x="0" y="-7" width="75" height="82" filterUnits="userSpaceOnUse" color-interpolation-filters="sRGB">
<feFlood flood-opacity="0" result="BackgroundImageFix"/>
<feBlend mode="normal" in="SourceGraphic" in2="BackgroundImageFix" result="shape"/>
<feColorMatrix in="SourceAlpha" type="matrix" values="0 0 0 0 0 0 0 0 0 0 0 0 0 0 0 0 0 0 127 0" result="hardAlpha"/>
<feOffset dy="-7"/>
<feGaussianBlur stdDeviation="5"/>
<feComposite in2="hardAlpha" operator="arithmetic" k2="-1" k3="1"/>
<feColorMatrix type="matrix" values="0 0 0 0 0 0 0 0 0 0 0 0 0 0 0 0 0 0 0.25 0"/>
<feBlend mode="normal" in2="shape" result="effect1_innerShadow"/>
</filter>
<linearGradient id="paint0_linear" x1="29.0952" y1="17.4206" x2="29.0952" y2="79.6212" gradientUnits="userSpaceOnUse">
<stop stop-color="#E76969"/>
<stop offset="1" stop-color="#FFB885"/>
</linearGradient>
<linearGradient id="paint1_linear" x1="30.9129" y1="11.2925" x2="29.7547" y2="20.4648" gradientUnits="userSpaceOnUse">
<stop offset="0.57937" stop-color="#FFDB5A"/>
<stop offset="1" stop-color="#A1ECFD"/>
</linearGradient>
<linearGradient id="paint2_linear" x1="46.5284" y1="29.3889" x2="46.5284" y2="91.5895" gradientUnits="userSpaceOnUse">
<stop stop-color="#E76969"/>
<stop offset="1" stop-color="#FFB885"/>
</linearGradient>
<linearGradient id="paint3_linear" x1="48.3461" y1="22.7597" x2="47.1879" y2="31.9321" gradientUnits="userSpaceOnUse">
<stop offset="0.57937" stop-color="#FFDB5A"/>
<stop offset="1" stop-color="#A1ECFD"/>
</linearGradient>
</defs>
</svg>
